<svg enable-background="new 0 0 480 128" viewBox="0 0 480 128" xmlns="http://www.w3.org/2000/svg"><path d="m179.78 98h-27.78l13.25-68h22.89c3.94 0 7.39.38 10.27 1.44 6.24 2.2 9.89 7.28 9.89 13.98 0 7.18-4.42 13.7-11.14 16.76v.19c5.47 2.01 8.26 7.18 8.26 13.22 0 10.44-6.53 17.72-15.26 20.78-3.27 1.15-6.82 1.63-10.38 1.63zm-4.26-57.37-3.36 17.14h13c6.05 0 10.37-4.88 10.37-10.73 0-3.74-2.21-6.42-7.2-6.42h-12.81zm-5.28 27.11-3.84 19.63h14.25c2.11 0 4.03-.38 5.66-1.25 3.84-2.01 6.43-6.13 6.43-10.82 0-4.5-2.98-7.57-8.26-7.57h-14.24zm181.96 30.26h-12.2l13.25-68h12.19l-7.2 36.94c9.92-1.7 18.06-8.69 21.28-17.94h13.67c-2.98 9.82-10.71 18.04-20.2 22.95.27 9.5 6.55 15.26 14.46 16.7l-2.28 11.75c-11.74-2.47-20.71-12.39-22.26-24.68-2.17.52-4.37.86-6.57 1.02zm38.3-19.87c0 11.81 8.54 21.02 23.81 21.02 10.85 0 19.1-6.43 19.1-6.43l-3.26-9.31s-7.3 5.38-15.17 5.38-12.1-4.9-12.1-11.14c0-.58 0-1.15.1-1.82h33.7s1.73-5.18 1.73-9.41c0-10.85-6.43-18.53-19.58-18.53-16.33 0-28.33 13.63-28.33 30.24zm14.4-10.66c2.4-6.05 7.49-10.18 13.73-10.18 4.61 0 7.78 2.98 7.78 8.06 0 1.06-.19 2.11-.19 2.11h-21.32zm33.85 30.53h12.19l3.36-17.38c2.3-12.1 10.94-20.26 18.24-20.26 1.73 0 2.88.19 2.88.19l2.4-12s-1.34-.19-2.88-.19c-7.49 0-14.21 5.95-17.47 12.67h-.1s.58-1.73.96-3.55l1.63-8.45h-11.71zm-146-11.33c0 8.06 6.91 12.48 14.5 12.48 10.37 0 15.94-8.83 15.94-8.83h.19s-.58 1.54-.96 3.55l-.77 4.13h11.23l5.86-30.24c.29-1.73.48-3.36.48-4.8 0-11.33-9.02-15.07-17.95-15.07-10.56 0-19.39 5.28-19.39 5.28l2.88 9.41s7.39-4.61 14.4-4.61c5.57 0 7.87 2.5 7.87 6.62 0 .67-.1 1.54-.29 2.69h-1.82c-12.97 0-32.17 3.75-32.17 19.39zm12.29-2.11c0-8.06 12.58-8.93 18.14-8.93h2.02l-.19.96c-1.15 5.95-7.2 13.06-13.63 13.06-4.33 0-6.34-2.3-6.34-5.09zm-36.23 14.59c-15.26 0-23.81-9.22-23.81-21.02 0-16.61 12-30.24 28.32-30.24 13.15 0 19.58 7.68 19.58 18.53 0 4.22-1.73 9.41-1.73 9.41h-33.7c-.1.67-.1 1.25-.1 1.82 0 6.24 4.22 11.14 12.1 11.14 7.87 0 15.17-5.38 15.17-5.38l3.26 9.31c.01 0-8.24 6.43-19.09 6.43zm4.32-41.85c-6.24 0-11.33 4.13-13.73 10.18h21.31s.19-1.06.19-2.11c0-5.1-3.16-8.07-7.77-8.07zm-65.83 40.7h12.19l3.36-17.38c2.3-12.1 10.94-20.26 18.24-20.26 1.73 0 2.88.19 2.88.19l2.4-12s-1.34-.19-2.88-.19c-7.49 0-14.21 5.95-17.47 12.67h-.1s.58-1.73.96-3.55l1.63-8.45h-11.71z" fill="#003dad"/><path d="m52.79 91c4.08 12.49 10.64 23.85 19.12 33.5 15.88-2.06 29.85-10.22 39.46-22.06-7.84 2.07-16.07 3.17-24.56 3.17-6.79 0-13.42-.72-19.81-2.06-6.67-1.36-12.07-6.21-14.21-12.55z" fill="#1269ff"/><path d="m64 125c2.68 0 5.32-.17 7.91-.51-8.48-9.65-15.04-21.01-19.12-33.5-.64-1.91-.99-3.95-.99-6.07 0-4.77 1.76-9.12 4.66-12.46-11.1 12.41-19.02 27.71-22.48 44.64 8.85 5.03 19.1 7.9 30.02 7.9z" fill="#5c9dff"/><path d="m4.69 78.33c4 16.61 14.79 30.57 29.28 38.78 3.47-16.95 11.4-32.28 22.52-44.69 3.48-3.98 8.6-6.49 14.3-6.49 1.27 0 2.5.12 3.7.36-6.36-1.33-12.95-2.04-19.71-2.04-18.35-.01-35.5 5.14-50.09 14.08z" fill="#9ec6ff"/><path d="m74.5 66.28c-6.36-1.33-12.95-2.04-19.71-2.04-18.36 0-35.51 5.15-50.1 14.09-1.1-4.59-1.69-9.39-1.69-14.33 0-19.02 8.71-36.01 22.35-47.2 29.91 9.03 53.64 32.31 63.39 61.91.09.26.18.52.26.79-.08-.26-.17-.53-.26-.79-2.19-6.29-7.6-11.12-14.24-12.43z" fill="#d1e3ff"/><path d="m121.99 53c0-27-22.49-50-58-50-14.66 0-28.12 5.18-38.64 13.8 30.18 9.12 54.07 32.7 63.64 62.69.56 1.75 1.07 3.62 1.53 5.42 17.34-.38 31.47-14.48 31.47-31.91z" fill="#fff"/><path d="m70.8 68.92c1.12 0 2.06.09 3.12.3 5.56 1.1 10.12 5.14 11.98 10.43.54 1.7 1.25 4.25 1.7 6l.59 2.31 2.38-.05c18.94-.4 34.43-15.81 34.43-34.91 0-28.93-24.13-53-61-53-15.21.05-29.63 5.58-40.55 14.48-14.31 11.73-23.45 29.56-23.45 49.52.01 5.12.63 10.27 1.78 15.03 4.2 17.43 15.52 32.08 30.71 40.68 9.19 5.18 20.18 8.25 31.51 8.28 2.78 0 5.61-.19 8.29-.53 16.67-2.16 31.32-10.73 41.41-23.14l.66-.81-1.28-4.63-2.47.65c-7.66 2.03-15.51 3.08-23.8 3.07-6.63 0-12.95-.68-19.19-2-5.62-1.13-10.19-5.22-11.99-10.56-.58-1.68-.84-3.24-.83-5.11-.06-4.17 1.37-7.6 3.95-10.53 2.94-3.36 7.25-5.48 12.05-5.48zm-6.8-62.92c34.12 0 55 21.92 55 47 0 14.99-11.56 27.3-26.23 28.78-.39-1.39-.81-2.86-1.17-3.98-9.29-29.1-31.41-51.63-59.87-62.03 9.25-6.28 20.16-9.81 32.27-9.77zm-58 58c0-17.51 7.76-33.21 20.03-43.85 23.34 7.48 42.47 23.45 53.64 44.64-1.45-.64-2.98-1.13-4.58-1.45-6.5-1.35-13.39-2.1-20.3-2.1-17.28.03-33.84 4.58-48 12.4-.53-3.13-.79-6.31-.79-9.64zm60.39 42.48c6.53 1.37 13.47 2.12 20.42 2.12 5.31 0 10.59-.44 15.72-1.25-8.1 7.21-18.23 12.17-29.43 13.94-4.26-5-7.96-10.4-11.05-16.17 1.38.59 2.83 1.05 4.34 1.36zm-.45 15.49c-.64.02-1.29.03-1.94.03-9.73.03-18.59-2.26-26.63-6.45 2.31-10.17 6.25-19.6 11.58-28.14.18 1.57.53 3.13.99 4.52 3.57 10.89 9.08 21.14 16 30.04zm-11.69-51.54c-10.42 11.68-18.29 26.2-22.27 41.94-11.43-7.58-20.01-19.1-23.82-32.62 13.79-8.04 29.5-12.54 46.63-12.51.96 0 1.91.01 2.86.04-1.24.93-2.38 1.98-3.4 3.15z" fill="#003dad"/></svg>