<?xml version="1.0" encoding="UTF-8" standalone="no"?>
<svg
   xmlns:dc="http://purl.org/dc/elements/1.1/"
   xmlns:cc="http://creativecommons.org/ns#"
   xmlns:rdf="http://www.w3.org/1999/02/22-rdf-syntax-ns#"
   xmlns:svg="http://www.w3.org/2000/svg"
   xmlns="http://www.w3.org/2000/svg"
   xmlns:sodipodi="http://sodipodi.sourceforge.net/DTD/sodipodi-0.dtd"
   xmlns:inkscape="http://www.inkscape.org/namespaces/inkscape"
   height="100px"
   width="100px"
   fill="#000000"
   version="1.1"
   x="0px"
   y="0px"
   viewBox="0 0 100 100"
   enable-background="new 0 0 100 100"
   xml:space="preserve"
   id="svg4566"
   sodipodi:docname="fastforwardicon.svg"
   inkscape:version="0.92.4 (5da689c313, 2019-01-14)"><metadata
     id="metadata4572"><rdf:RDF><cc:Work
         rdf:about=""><dc:format>image/svg+xml</dc:format><dc:type
           rdf:resource="http://purl.org/dc/dcmitype/StillImage" /><dc:title></dc:title></cc:Work></rdf:RDF></metadata><defs
     id="defs4570" /><sodipodi:namedview
     pagecolor="#ffffff"
     bordercolor="#666666"
     borderopacity="1"
     objecttolerance="10"
     gridtolerance="10"
     guidetolerance="10"
     inkscape:pageopacity="0"
     inkscape:pageshadow="2"
     inkscape:window-width="1366"
     inkscape:window-height="705"
     id="namedview4568"
     showgrid="false"
     inkscape:zoom="9.44"
     inkscape:cx="24.548336"
     inkscape:cy="48.10444"
     inkscape:window-x="-8"
     inkscape:window-y="-8"
     inkscape:window-maximized="1"
     inkscape:current-layer="svg4566" /><path
     d="M49.6,12.1c-21.1,0-38.2,17.1-38.2,38.2s17.1,38.2,38.2,38.2c21.1,0,38.2-17.1,38.2-38.2S70.7,12.1,49.6,12.1z M49.6,84.9  c-19,0-34.5-15.5-34.5-34.5s15.5-34.5,34.5-34.5s34.5,15.5,34.5,34.5S68.7,84.9,49.6,84.9z M68.1,47.9L54.9,35.6  c-0.6-0.6-1.2-0.8-1.9-0.8c-0.6,0-2.5,0.3-2.5,3.5v7.1l-10.4-9.7c-0.6-0.6-1.2-0.8-1.9-0.8c-0.6,0-2.5,0.3-2.5,3.5v24  c0,3.3,2,3.5,2.6,3.5c0.7,0,1.4-0.3,2-0.9l10.3-9.6v7c0,3.3,2,3.5,2.6,3.5c0.7,0,1.4-0.3,2-0.9l12.6-11.7c2.1-1.9,1.6-4,0.6-5.2  C68.2,48,68.1,47.9,68.1,47.9z M50.2,50.6L39.3,60.7V40l11.1,10.3C50.4,50.4,50.3,50.5,50.2,50.6z M65.1,50.6L54.2,60.7V40  l11.1,10.3C65.3,50.4,65.2,50.5,65.1,50.6z"
     id="path4564" /><path
     style="fill:#f82249;fill-opacity:1;stroke:#f82249;stroke-width:0.10593221;stroke-opacity:1"
     d="M 47.450878,88.400817 C 44.337495,88.129796 42.337357,87.82169 40.287847,87.297406 34.781362,85.888796 29.90267,83.426843 25.41698,79.793064 23.887621,78.554157 21.123566,75.759022 19.841713,74.155105 12.7224,65.247076 9.9731321,53.866362 12.230384,42.647679 14.900393,29.377573 24.712405,18.340202 37.622646,14.084344 c 4.009531,-1.321741 7.615486,-1.891096 11.981613,-1.891812 2.532836,-4.16e-4 4.155643,0.123787 6.292364,0.481591 11.778888,1.972429 22.018363,9.414729 27.523783,20.004957 2.10614,4.051369 3.362988,8.023052 4.026172,12.722836 0.229508,1.626449 0.319696,6.226886 0.159327,8.127075 -1.524011,18.057688 -15.588568,32.554013 -33.640196,34.672918 -1.327475,0.15582 -5.534327,0.284262 -6.514831,0.198908 z m 6.240792,-3.699824 c 10.190691,-1.272024 18.998858,-6.687142 24.637174,-15.146535 2.983034,-4.475565 4.692392,-8.994004 5.530337,-14.618644 0.151695,-1.018241 0.188735,-1.935166 0.186146,-4.608051 -0.0035,-3.615273 -0.1045,-4.637155 -0.738264,-7.46955 C 80.400542,29.868512 70.13548,19.602838 57.147012,16.696605 c -2.447085,-0.547547 -3.851874,-0.707332 -6.744864,-0.767181 -2.859486,-0.05916 -4.201034,0.02446 -6.499999,0.405121 -6.074398,1.005802 -11.775138,3.659887 -16.631356,7.743034 -1.240164,1.04274 -3.59218,3.461908 -4.646389,4.779048 -8.400962,10.496241 -9.938481,24.962179 -3.927359,36.95102 3.439568,6.860022 9.090185,12.416555 15.989003,15.722783 4.116878,1.972994 8.016809,2.991047 12.923729,3.37366 1.054663,0.08224 4.797223,-0.04274 6.081893,-0.203097 z"
     id="path5125"
     inkscape:connector-curvature="0" /><path
     style="fill:#f82249;fill-opacity:1;stroke:#f82249;stroke-width:0.10593221;stroke-opacity:1"
     d="m 37.811048,65.773958 c -0.703624,-0.12347 -1.266896,-0.570096 -1.640621,-1.300871 L 35.851302,63.849078 V 50.388209 36.92734 l 0.24311,-0.493496 c 0.13371,-0.271422 0.372058,-0.623848 0.529661,-0.783169 0.651471,-0.658573 1.782803,-0.867493 2.617059,-0.483284 0.258911,0.119238 2.525164,2.155775 5.826272,5.235698 l 5.402542,5.040555 0.05655,-4.15222 c 0.05492,-4.032758 0.06365,-4.170094 0.303474,-4.773491 0.309208,-0.777969 0.907066,-1.39235 1.513918,-1.555759 0.580272,-0.156251 1.331885,-0.08439 1.820777,0.174077 0.210253,0.111158 3.421522,3.030985 7.136154,6.488504 3.714631,3.457519 6.878944,6.399467 7.031806,6.537662 0.456826,0.412994 0.763292,1.176435 0.812526,2.024093 0.04888,0.841514 -0.07025,1.331677 -0.493915,2.032308 -0.377463,0.624222 -13.774256,13.075887 -14.388115,13.373051 -0.972337,0.4707 -2.204354,0.207733 -2.885546,-0.615904 -0.647818,-0.783284 -0.680927,-1.035454 -0.723658,-5.511549 -0.02127,-2.228549 -0.06372,-4.051907 -0.09432,-4.051907 -0.0306,0 -1.371222,1.227489 -2.979156,2.727754 -6.640226,6.195596 -7.775245,7.234034 -8.0779,7.390544 -0.464425,0.240163 -1.148297,0.33847 -1.691488,0.243151 z m 7.196271,-10.288419 c 2.946182,-2.727313 5.370702,-5.020067 5.387822,-5.095009 0.01712,-0.07494 -2.223346,-2.228185 -4.978814,-4.784985 -2.755467,-2.5568 -5.260205,-4.882984 -5.566084,-5.169298 l -0.556144,-0.520572 v 10.409693 c 0,9.742621 0.01142,10.400376 0.178263,10.264306 0.09805,-0.07996 2.588776,-2.376823 5.534957,-5.104135 z m 14.784661,0.108612 c 3.029661,-2.811496 5.508475,-5.170158 5.508475,-5.24147 0,-0.114739 -11.004244,-10.406274 -11.126928,-10.406274 -0.02691,0 -0.04892,4.67161 -0.04892,10.381356 0,5.709746 0.03575,10.380646 0.07945,10.379778 0.0437,-8.48e-4 2.558263,-2.301893 5.587923,-5.11339 z"
     id="path5127"
     inkscape:connector-curvature="0" /></svg>