<svg height='100px' width='100px'  fill="#000000" xmlns="http://www.w3.org/2000/svg" xmlns:xlink="http://www.w3.org/1999/xlink" version="1.1" x="0px" y="0px" viewBox="0 0 100 100" enable-background="new 0 0 100 100" xml:space="preserve"><path d="M50,11.9c-21.1,0-38.2,17.1-38.2,38.2c0,21.1,17.1,38.2,38.2,38.2c21.1,0,38.2-17.1,38.2-38.2C88.2,29,71.1,11.9,50,11.9z   M50,84.6c-19,0-34.5-15.5-34.5-34.5S31,15.6,50,15.6s34.5,15.5,34.5,34.5S69.1,84.6,50,84.6z M64.9,47.5c-0.1,0-0.1-0.1-0.2-0.1  L43.5,35.2c-0.7-0.4-1.3-0.6-2-0.6c-1.4,0-2.9,1.1-2.9,3.5v24c0.1,2.4,1.5,3.5,3,3.5c0.7,0,1.4-0.2,2.1-0.6L64,53.3  c1.5-0.8,2.2-1.9,2.3-3.1C66.4,49.7,66.2,48.5,64.9,47.5z M42.3,61.6V38.8l19.7,11.4L42.3,61.6z"></path></svg>