<?xml version="1.0" encoding="UTF-8" standalone="no"?>
<svg
   xmlns:dc="http://purl.org/dc/elements/1.1/"
   xmlns:cc="http://creativecommons.org/ns#"
   xmlns:rdf="http://www.w3.org/1999/02/22-rdf-syntax-ns#"
   xmlns:svg="http://www.w3.org/2000/svg"
   xmlns="http://www.w3.org/2000/svg"
   xmlns:sodipodi="http://sodipodi.sourceforge.net/DTD/sodipodi-0.dtd"
   xmlns:inkscape="http://www.inkscape.org/namespaces/inkscape"
   height="100px"
   width="100px"
   fill="#000000"
   version="1.1"
   x="0px"
   y="0px"
   viewBox="0 0 100 100"
   enable-background="new 0 0 100 100"
   xml:space="preserve"
   id="svg3735"
   sodipodi:docname="forwardicon.svg"
   inkscape:version="0.92.4 (5da689c313, 2019-01-14)"><metadata
     id="metadata3741"><rdf:RDF><cc:Work
         rdf:about=""><dc:format>image/svg+xml</dc:format><dc:type
           rdf:resource="http://purl.org/dc/dcmitype/StillImage" /><dc:title></dc:title></cc:Work></rdf:RDF></metadata><defs
     id="defs3739" /><sodipodi:namedview
     pagecolor="#ffffff"
     bordercolor="#666666"
     borderopacity="1"
     objecttolerance="10"
     gridtolerance="10"
     guidetolerance="10"
     inkscape:pageopacity="0"
     inkscape:pageshadow="2"
     inkscape:window-width="1366"
     inkscape:window-height="705"
     id="namedview3737"
     showgrid="false"
     inkscape:zoom="5.36"
     inkscape:cx="18.283582"
     inkscape:cy="50"
     inkscape:window-x="-8"
     inkscape:window-y="-8"
     inkscape:window-maximized="1"
     inkscape:current-layer="svg3735" /><path
     d="M50,11.9c-21.1,0-38.2,17.1-38.2,38.2c0,21.1,17.1,38.2,38.2,38.2c21.1,0,38.2-17.1,38.2-38.2C88.2,29,71.1,11.9,50,11.9z   M50,84.6c-19,0-34.5-15.5-34.5-34.5S31,15.6,50,15.6s34.5,15.5,34.5,34.5S69.1,84.6,50,84.6z M64.9,47.5c-0.1,0-0.1-0.1-0.2-0.1  L43.5,35.2c-0.7-0.4-1.3-0.6-2-0.6c-1.4,0-2.9,1.1-2.9,3.5v24c0.1,2.4,1.5,3.5,3,3.5c0.7,0,1.4-0.2,2.1-0.6L64,53.3  c1.5-0.8,2.2-1.9,2.3-3.1C66.4,49.7,66.2,48.5,64.9,47.5z M42.3,61.6V38.8l19.7,11.4L42.3,61.6z"
     id="path3733" /><path
     style="fill:#f82249;stroke-width:0.18656716;stroke:#f82249;stroke-opacity:1;fill-opacity:1"
     d="M 47.059862,88.082024 C 36.27683,87.281207 26.166069,81.749899 19.634437,73.078358 15.96318,68.204315 13.605596,62.787256 12.407924,56.473881 11.957742,54.100802 11.865015,47.624638 12.243639,45 13.513144,36.199726 17.506593,28.420496 23.811084,22.466639 34.088869,12.760469 48.503582,9.5292418 61.884328,13.932074 c 9.438892,3.105795 17.167413,9.627449 21.81486,18.408301 4.727331,8.931784 5.667997,19.475218 2.609333,29.246629 -1.214232,3.879061 -2.942277,7.300207 -5.515349,10.919166 -1.368814,1.925199 -4.686387,5.448836 -6.610459,7.021052 -7.612202,6.220155 -17.321896,9.282685 -27.122851,8.554802 z m 5.775959,-3.53577 c 7.3328,-0.647183 13.922218,-3.374301 19.537,-8.08564 8.83656,-7.414724 13.410373,-19.252741 11.897528,-30.793373 -0.997657,-7.610553 -4.35092,-14.42415 -9.791648,-19.89594 -3.86313,-3.885188 -8.178957,-6.602406 -13.264281,-8.351108 -11.322097,-3.893356 -23.805138,-1.651456 -33.107855,5.946029 -1.887114,1.541196 -4.824156,4.68134 -6.288482,6.723341 -1.610454,2.245777 -3.795244,6.579138 -4.666052,9.254756 -3.720139,11.430381 -1.3226,23.694819 6.457541,33.033086 5.679716,6.81719 14.22137,11.297996 23.162816,12.150821 2.401405,0.229045 3.631125,0.232699 6.063433,0.01802 z"
     id="path4550"
     inkscape:connector-curvature="0" /><path
     style="fill:#f82249;fill-opacity:1;stroke:#f82249;stroke-width:0.18656716;stroke-opacity:1"
     d="M 40.33291,65.177341 C 39.961229,64.98006 39.483093,64.480703 39.216418,64.011297 L 38.75,63.190299 38.698364,50.448932 c -0.03543,-8.743231 0.012,-12.977683 0.151153,-13.494469 0.317664,-1.179714 1.227331,-2.045735 2.272589,-2.16355 0.476714,-0.05373 1.120065,-0.0094 1.429669,0.09854 0.999596,0.348461 22.110311,12.565985 22.742303,13.161781 1.201847,1.133018 1.195137,2.855677 -0.01612,4.139239 -0.546741,0.579368 -19.741295,11.798223 -22.050347,12.888008 -1.124721,0.530827 -2.023071,0.561508 -2.894702,0.09886 z m 12.069387,-9.315634 c 5.266423,-3.048468 9.575315,-5.59688 9.575315,-5.663138 0,-0.06626 -4.157067,-2.525957 -9.237926,-5.466 -5.080859,-2.940043 -9.530486,-5.518147 -9.88806,-5.729121 L 42.201493,38.61986 v 11.512269 c 0,10.694628 0.02221,11.503746 0.312744,11.392259 0.172009,-0.06601 4.621636,-2.614213 9.88806,-5.662681 z"
     id="path4552"
     inkscape:connector-curvature="0" /></svg>